/* XPM */
static char *result[] = {
/* columns rows colors chars-per-pixel */
"16 15 60 1 ",
"  c #2D1F1C",
". c #3F1811",
"X c #3F340D",
"o c #1C2221",
"O c #1A2628",
"+ c #18292F",
"@ c #152D35",
"# c #13303B",
"$ c #2A2324",
"% c #4F150D",
"& c #5C160F",
"* c #4C1913",
"= c #6A1610",
"- c #771712",
"; c #413106",
": c #4F3F06",
"> c #5C320A",
", c #4C430D",
"< c #5C4E05",
"1 c #6A5D05",
"2 c #764E1B",
"3 c #765317",
"4 c #776C04",
"5 c #0E3848",
"6 c #0C3B4F",
"7 c #113442",
"8 c #0A3F56",
"9 c #07435C",
"0 c #054763",
"q c #851714",
"w c #82141B",
"e c #93151C",
"r c #9B161D",
"t c #A7171D",
"y c #B0191B",
"u c #C91B1E",
"i c #D61B1F",
"p c #FF1D25",
"a c #A27526",
"s c #FF7217",
"d c #B8801A",
"f c #E18F13",
"g c #FF8E13",
"h c #F8841F",
"j c #FB8A1A",
"k c #F7931E",
"l c #E0AC10",
"z c #F9AD1E",
"x c #FAB515",
"c c #FABC13",
"v c #FCBF30",
"b c #A9D42F",
"n c #C9C402",
"m c #D6D301",
"M c #FEEB06",
"N c #FDE408",
"B c #F1F000",
"V c yellow",
"C c #FCC42C",
"Z c None",
/* pixels */
"ZZZ#:;6ZZ9X:#ZZZ",
"ZZ74VBX99,BV18ZZ",
"ZZoxxNn23mMxl+ZZ",
" &&jhkzvCckkf&&O",
"=pppppgVVsppppp-",
"qpppppgVVgppppp&",
"%trrerabbdrwwrt.",
"@uppppgVVgppppy#",
"#uppppgVVgppppi#",
"#uppppgVVgpppppo",
"#uppppgVVgpppppo",
"#uppppgVVgpppppo",
"#uppppgVVgpppppo",
"#uppppgVVgpppppo",
"0$&&&&><<>&&&&*5"
};
