/* XPM */
static char *result[] = {
/* columns rows colors chars-per-pixel */
"32 32 16 1 ",
"  c #7A0000",
". c #534721",
"X c #77584A",
"o c #AB0000",
"O c #E30000",
"+ c #8B5E4A",
"@ c #9D725D",
"# c #978300",
"$ c #D7906E",
"% c #AAAAAD",
"& c #EEBE93",
"* c #FFE1AF",
"= c #CACACC",
"- c gray91",
"; c white",
": c None",
/* pixels */
"::::::::::        ::::::::::::::",
"::::::::  ooOOOOoo  ::::::::::::",
"::::::  ooOOOOOOOOoo :::::::::::",
"::::: ooOOOOOOOOOOOOo ::::::::::",
":::: ooOOOOOOOOOOOOOOo :::::::::",
"::: ooOOOOOOOOOOOOOOooo ::::::::",
"::: oOOOOOoOOOOOOOO====%::::::::",
":: ooOOOooOOOOOO==--;;-=%:::::::",
":: oOOoooOOOOo=-;;;;;;-=%:::::::",
":: oOoo oOOoo=-;;;;;;-==%:::::::",
": oOoo oOOoo=-;;;--==$$.::::::::",
": ooo  oOoo=-;;-==%%&&$.::::::::",
": oo  oooo=-;;-=%--;;&&.::::::::",
":%  % ooo%-;--=%-;;;-=&.::::::::",
"%-=-% oo%---=%==;;;-=*&.::::::::",
"=-;-=  %=--=%*%---==**&%::::::::",
"%=-=%: %===%$$;%%=**==--%:::::::",
":%%%:::%==%==*;-***=-;;-%:::::::",
"::::::::%% %==-;-==-;;-==%::::::",
":::::::::   o==-;;;;;-;;-%::::::",
":::::::::  oOo==--;;;;;;-%::::::",
":::::::::  OOO o==--;;;;-%::::::",
":::::::::. OOO Ooo==--;-=:::::::",
":::::::::.%;;-=....o%=--%:::::::",
"::::::::  %;;;-....o.#%=::::::::",
":::::::: o.&**.OOOOOOoo%::::::::",
"::::::::%o.$**.OOOOOO=%:::::::::",
":::::::::%=...;;;;;-=%::::::::::",
"::::::::::%=------==%:::::::::::",
":::::::::::  ooooo :::::::::::::",
"::::::::::::.X+@@.::::::::::::::",
":::::::::::::....:::::::::::::::"
};
